<svg width="211" height="283" viewBox="0 0 211 283" fill="none" xmlns="http://www.w3.org/2000/svg">
<path d="M119 97H210V283H0V3.5127L0.987305 3.5L117.987 2L119 1.9873V97ZM2 5.4873V281H208V99H117V4.0127L2 5.4873ZM105.841 145.767C108.139 145.767 110.312 146.101 112.353 146.775C114.407 147.45 116.267 148.443 117.925 149.754C119.585 151.053 120.97 152.636 122.081 154.497C123.202 156.361 123.966 158.475 124.383 160.825L124.591 162H117.298L117.134 161.201C116.845 159.795 116.345 158.585 115.646 157.556L115.641 157.549C114.941 156.499 114.089 155.623 113.084 154.914L113.078 154.909L113.072 154.905C112.073 154.179 110.961 153.632 109.731 153.266C108.493 152.897 107.197 152.71 105.841 152.71C103.377 152.71 101.168 153.331 99.1895 154.562L99.1885 154.562C97.2404 155.783 95.662 157.597 94.4678 160.053C93.301 162.481 92.6934 165.511 92.6934 169.182C92.6934 172.853 93.3008 175.883 94.4678 178.312L94.6963 178.765C95.861 180.992 97.363 182.657 99.1895 183.802L99.5625 184.025C101.445 185.109 103.531 185.653 105.841 185.653C107.197 185.653 108.493 185.468 109.731 185.099C110.964 184.732 112.077 184.19 113.077 183.476C114.086 182.751 114.939 181.866 115.641 180.814L115.643 180.812C116.345 179.765 116.846 178.552 117.135 177.16L117.3 176.363H124.592L124.382 177.539C123.965 179.876 123.202 181.988 122.083 183.863C120.972 185.726 119.585 187.317 117.925 188.631L117.92 188.635C116.263 189.93 114.406 190.914 112.354 191.588L112.353 191.587C110.312 192.262 108.14 192.597 105.841 192.597C101.949 192.597 98.4516 191.643 95.3809 189.717C92.3123 187.791 89.9127 185.059 88.1768 181.558C86.4325 178.039 85.5791 173.903 85.5791 169.182C85.5791 164.46 86.4325 160.324 88.1768 156.806C89.9127 153.304 92.3124 150.573 95.3809 148.647C98.4517 146.721 101.948 145.767 105.841 145.767ZM105.841 146.767C102.119 146.767 98.8098 147.676 95.9121 149.494L95.376 149.844C92.7316 151.638 90.6304 154.107 89.0723 157.25C87.4104 160.602 86.5791 164.579 86.5791 169.182C86.5791 173.784 87.4105 177.761 89.0723 181.113C90.7342 184.466 93.0144 187.051 95.9121 188.869C98.6286 190.574 101.707 191.479 105.147 191.586L105.841 191.597C108.042 191.597 110.109 191.277 112.041 190.638C113.865 190.038 115.521 189.183 117.009 188.072L117.304 187.847C118.769 186.688 120.009 185.298 121.024 183.678L121.225 183.351C122.276 181.589 123 179.593 123.397 177.363H118.113C117.801 178.869 117.254 180.204 116.473 181.369C115.706 182.52 114.768 183.493 113.66 184.288C112.566 185.069 111.352 185.659 110.017 186.057C108.681 186.454 107.29 186.653 105.841 186.653C103.199 186.653 100.805 185.986 98.6602 184.65C96.6628 183.399 95.0464 181.591 93.8105 179.229L93.5684 178.749C92.3965 176.312 91.7735 173.357 91.7002 169.884L91.6934 169.182C91.6934 165.403 92.3184 162.215 93.5684 159.615C94.8325 157.016 96.5296 155.048 98.6602 153.713C100.805 152.378 103.199 151.71 105.841 151.71C107.29 151.71 108.682 151.909 110.017 152.307C111.352 152.704 112.566 153.301 113.66 154.097C114.768 154.878 115.706 155.844 116.473 156.994C117.254 158.145 117.801 159.48 118.113 161H123.397C123 158.756 122.276 156.76 121.225 155.013C120.173 153.251 118.866 151.76 117.304 150.538C115.741 149.302 113.987 148.365 112.041 147.726C110.109 147.086 108.042 146.767 105.841 146.767ZM121.727 2.3125L208.727 94.3125L210.322 96H120V0.487305L121.727 2.3125ZM122 94H205.678L122 5.5127V94Z" fill="#FF0000"/>
</svg>
