<svg width="211" height="283" viewBox="0 0 211 283" fill="none" xmlns="http://www.w3.org/2000/svg">
<path d="M119 97H210V283H0V3.5127L0.987305 3.5L117.987 2L119 1.9873V97ZM2 5.4873V281H208V99H117V4.0127L2 5.4873ZM83.8408 145.767C86.1395 145.767 88.3122 146.101 90.3525 146.775C92.4071 147.45 94.2675 148.443 95.9248 149.754H95.9238C97.5841 151.053 98.9701 152.636 100.081 154.497C101.202 156.361 101.966 158.475 102.383 160.825L102.591 162H95.2979L95.1338 161.201C94.8447 159.795 94.3446 158.585 93.6455 157.556L93.6406 157.549C92.9406 156.499 92.0891 155.623 91.084 154.914L91.0781 154.909L91.0723 154.905C90.073 154.179 88.9613 153.632 87.7314 153.266C86.4925 152.897 85.1969 152.71 83.8408 152.71C81.3767 152.71 79.1683 153.331 77.1895 154.562L77.1885 154.562C75.2404 155.783 73.662 157.597 72.4678 160.053C71.301 162.481 70.6934 165.511 70.6934 169.182C70.6934 172.853 71.3008 175.883 72.4678 178.312L72.6963 178.765C73.861 180.992 75.363 182.657 77.1895 183.802L77.5625 184.025C79.4448 185.109 81.5306 185.653 83.8408 185.653C85.1968 185.653 86.4926 185.468 87.7314 185.099C88.9639 184.732 90.0771 184.19 91.0771 183.476C92.0859 182.751 92.9394 181.866 93.6406 180.814L93.6426 180.812C94.3453 179.765 94.846 178.552 95.1348 177.16L95.2998 176.363H102.592L102.382 177.539C101.965 179.876 101.202 181.988 100.083 183.863C98.9716 185.726 97.5853 187.317 95.9248 188.631L95.9199 188.635C94.2634 189.93 92.4056 190.914 90.3535 191.588L90.3525 191.587C88.3121 192.262 86.1396 192.597 83.8408 192.597C79.9486 192.597 76.4516 191.643 73.3809 189.717C70.3123 187.791 67.9127 185.059 66.1768 181.558C64.4325 178.039 63.5791 173.903 63.5791 169.182C63.5791 164.46 64.4325 160.324 66.1768 156.806C67.9127 153.304 70.3124 150.573 73.3809 148.647C76.4517 146.721 79.9485 145.767 83.8408 145.767ZM125.604 158.466H134.657L136.643 146.363H142.931L140.945 158.466H147.443L146.441 164.728H139.918L138.456 173.637H144.887L143.885 179.897H137.429L135.443 192H129.155L131.142 179.897H122.088L120.103 192H113.814L115.8 179.897H109.303L110.17 174.479L110.304 173.637H116.827L118.289 164.728H111.859L112.861 158.466H119.316L121.302 146.363H127.59L125.604 158.466ZM83.8408 146.767C80.1194 146.767 76.8098 147.676 73.9121 149.494L73.376 149.844C70.7316 151.638 68.6304 154.107 67.0723 157.25C65.4104 160.602 64.5791 164.579 64.5791 169.182C64.5791 173.784 65.4105 177.761 67.0723 181.113C68.7342 184.466 71.0144 187.051 73.9121 188.869C76.6286 190.574 79.707 191.479 83.1475 191.586L83.8408 191.597C86.0425 191.597 88.1092 191.277 90.041 190.638C91.8654 190.038 93.5215 189.183 95.0088 188.072L95.3037 187.847C96.7686 186.688 98.009 185.298 99.0244 183.678L99.2246 183.351C100.276 181.589 101 179.593 101.397 177.363H96.1133C95.8008 178.869 95.2539 180.204 94.4727 181.369C93.7056 182.52 92.7681 183.493 91.6602 184.288C90.5664 185.069 89.3518 185.659 88.0166 186.057C86.6815 186.454 85.2896 186.653 83.8408 186.653C81.1988 186.653 78.805 185.986 76.6602 184.65C74.6628 183.399 73.0464 181.591 71.8105 179.229L71.5684 178.749C70.3965 176.312 69.7735 173.357 69.7002 169.884L69.6934 169.182C69.6934 165.403 70.3184 162.215 71.5684 159.615C72.8325 157.016 74.5296 155.048 76.6602 153.713C78.805 152.378 81.1988 151.71 83.8408 151.71C85.2895 151.71 86.6815 151.909 88.0166 152.307C89.3518 152.704 90.5665 153.301 91.6602 154.097C92.768 154.878 93.7056 155.844 94.4727 156.994C95.2539 158.145 95.8008 159.48 96.1133 161H101.397C101 158.756 100.276 156.76 99.2246 155.013C98.1735 153.251 96.8662 151.76 95.3037 150.538C93.7413 149.302 91.9869 148.365 90.041 147.726C88.1093 147.086 86.0424 146.767 83.8408 146.767ZM120.166 159.466H113.714L113.032 163.728H119.467L117.677 174.637H111.157L110.475 178.897H116.978L114.992 191H119.254L121.239 178.897H132.318L130.333 191H134.595L136.58 178.897H143.032L143.714 174.637H137.279L139.069 163.728H145.589L146.271 159.466H139.769L141.754 147.363H137.492L135.507 159.466H124.427L126.412 147.363H122.151L120.166 159.466ZM133.018 174.637H121.938L123.728 163.728H134.808L133.018 174.637ZM123.115 173.637H132.168L133.63 164.728H124.577L123.115 173.637ZM121.727 2.3125L208.727 94.3125L210.322 96H120V0.487305L121.727 2.3125ZM122 94H205.678L122 5.5127V94Z" fill="#A100FF"/>
</svg>
