<svg width="211" height="283" viewBox="0 0 211 283" fill="none" xmlns="http://www.w3.org/2000/svg">
<path d="M119 97H210V283H0V3.5127L0.987305 3.5L117.987 2L119 1.9873V97ZM2 5.4873V281H208V99H117V4.0127L2 5.4873ZM107.97 145.767C110.9 145.767 113.544 146.293 115.882 147.369C118.204 148.425 120.078 149.889 121.469 151.772C122.886 153.673 123.635 155.838 123.713 158.24L123.746 159.272H116.712L116.607 158.391C116.386 156.525 115.512 155.111 113.94 154.08C112.317 153.015 110.288 152.454 107.799 152.454C105.974 152.454 104.423 152.75 103.124 153.311L103.123 153.31C101.827 153.875 100.855 154.633 100.165 155.565C99.5012 156.481 99.168 157.515 99.168 158.699C99.168 159.697 99.4023 160.497 99.8291 161.146C100.314 161.846 100.932 162.436 101.694 162.917C102.515 163.42 103.375 163.837 104.274 164.169C104.984 164.419 105.646 164.633 106.261 164.811L106.86 164.977L106.866 164.978L111.291 166.169C112.468 166.478 113.765 166.901 115.181 167.436L115.736 167.654C117.022 168.185 118.252 168.868 119.427 169.702L119.688 169.889C120.986 170.84 122.061 172.035 122.912 173.464C123.863 175.059 124.311 176.972 124.311 179.153C124.311 181.695 123.64 184.014 122.297 186.085L122.298 186.086C120.961 188.169 119.017 189.795 116.519 190.984L116.52 190.985C114.008 192.188 111.003 192.767 107.543 192.767C104.313 192.767 101.463 192.246 99.0215 191.169L99.0195 191.168C96.7558 190.163 94.9118 188.773 93.5186 186.985L93.2432 186.618C91.8346 184.652 91.0468 182.377 90.8643 179.821L90.7871 178.75H98.2334L98.3125 179.664C98.4387 181.128 98.9221 182.278 99.7236 183.174C100.58 184.101 101.667 184.806 103.01 185.28C104.402 185.753 105.911 185.994 107.543 185.994C109.452 185.994 111.132 185.685 112.6 185.088C114.069 184.475 115.192 183.648 116.008 182.622C116.797 181.615 117.196 180.445 117.196 179.068C117.196 177.816 116.852 176.889 116.235 176.196C115.539 175.414 114.601 174.755 113.391 174.234C112.115 173.686 110.73 173.202 109.235 172.787L103.859 171.251H103.857C100.345 170.241 97.4958 168.78 95.3633 166.83C93.1472 164.804 92.0547 162.147 92.0547 158.954C92.0548 156.319 92.7715 153.979 94.2275 151.975C95.6738 149.99 97.6062 148.462 99.9951 147.389C102.398 146.301 105.062 145.767 107.97 145.767ZM151.031 145.767C153.962 145.767 156.607 146.292 158.944 147.369C161.267 148.425 163.141 149.889 164.531 151.772C165.949 153.673 166.698 155.838 166.775 158.24L166.809 159.272H159.773L159.669 158.391C159.448 156.525 158.573 155.111 157.002 154.08C155.379 153.015 153.35 152.454 150.86 152.454C149.035 152.454 147.485 152.75 146.186 153.311C144.889 153.876 143.917 154.633 143.227 155.565C142.563 156.481 142.229 157.515 142.229 158.699C142.23 159.7 142.466 160.502 142.896 161.151C143.38 161.849 143.996 162.437 144.756 162.917C145.577 163.42 146.438 163.837 147.337 164.169C148.046 164.419 148.708 164.633 149.322 164.811L149.922 164.977L149.928 164.978L154.353 166.169C155.529 166.478 156.827 166.901 158.242 167.436L158.798 167.654C160.083 168.185 161.314 168.868 162.488 169.702L162.75 169.889C164.047 170.84 165.122 172.035 165.974 173.464C166.924 175.059 167.372 176.972 167.372 179.153C167.372 181.695 166.703 184.014 165.359 186.085C164.022 188.168 162.079 189.797 159.579 190.986C157.068 192.188 154.064 192.767 150.604 192.767C147.375 192.767 144.525 192.246 142.084 191.169L142.081 191.168C139.817 190.163 137.973 188.773 136.58 186.985L136.305 186.618C134.896 184.652 134.108 182.377 133.926 179.821L133.85 178.75H141.295L141.374 179.664C141.5 181.128 141.984 182.278 142.785 183.174C143.641 184.101 144.728 184.807 146.071 185.281C147.464 185.754 148.972 185.994 150.604 185.994C152.513 185.994 154.194 185.685 155.661 185.088C157.131 184.475 158.254 183.648 159.069 182.622C159.859 181.615 160.259 180.445 160.259 179.068C160.259 177.816 159.913 176.889 159.297 176.196C158.601 175.415 157.664 174.755 156.453 174.234C155.178 173.686 153.793 173.202 152.298 172.787L152.29 172.785L146.921 171.251H146.92C143.408 170.241 140.557 168.78 138.425 166.83C136.209 164.804 135.116 162.147 135.116 158.954C135.116 156.319 135.833 153.979 137.289 151.975L137.29 151.974C138.646 150.113 140.428 148.655 142.614 147.596L143.058 147.389C145.46 146.301 148.124 145.767 151.031 145.767ZM62.8408 145.767C65.1395 145.767 67.3122 146.101 69.3525 146.775C71.4071 147.45 73.2675 148.443 74.9248 149.754H74.9238C76.5841 151.053 77.9701 152.636 79.0811 154.497C80.2023 156.361 80.9662 158.475 81.3828 160.825L81.5908 162H74.2979L74.1338 161.201C73.8447 159.795 73.3446 158.585 72.6455 157.556L72.6406 157.549C71.9406 156.499 71.0891 155.623 70.084 154.914L70.0781 154.909L70.0723 154.905C69.073 154.179 67.9613 153.632 66.7314 153.266C65.4925 152.897 64.1969 152.71 62.8408 152.71C60.3767 152.71 58.1683 153.331 56.1895 154.562L56.1885 154.562C54.2404 155.783 52.662 157.597 51.4678 160.053C50.301 162.481 49.6934 165.511 49.6934 169.182C49.6934 172.853 50.3008 175.883 51.4678 178.312L51.6963 178.765C52.861 180.992 54.363 182.657 56.1895 183.802L56.5625 184.025C58.4448 185.109 60.5306 185.653 62.8408 185.653C64.1968 185.653 65.4926 185.468 66.7314 185.099C67.9639 184.732 69.0771 184.19 70.0771 183.476C71.0859 182.751 71.9394 181.866 72.6406 180.814L72.6426 180.812C73.3453 179.765 73.846 178.552 74.1348 177.16L74.2998 176.363H81.5918L81.3818 177.539C80.9651 179.876 80.2022 181.988 79.083 183.863C77.9716 185.726 76.5853 187.317 74.9248 188.631L74.9199 188.635C73.2634 189.93 71.4056 190.914 69.3535 191.588L69.3525 191.587C67.3121 192.262 65.1396 192.597 62.8408 192.597C58.9486 192.597 55.4516 191.643 52.3809 189.717C49.3123 187.791 46.9127 185.059 45.1768 181.558C43.4325 178.039 42.5791 173.903 42.5791 169.182C42.5791 164.46 43.4325 160.324 45.1768 156.806C46.9127 153.304 49.3124 150.573 52.3809 148.647C55.4517 146.721 58.9485 145.767 62.8408 145.767ZM107.97 146.767C105.186 146.767 102.664 147.278 100.405 148.301C98.161 149.309 96.3714 150.73 95.0361 152.562C93.7152 154.381 93.0548 156.511 93.0547 158.954L93.0664 159.499C93.1829 162.19 94.1727 164.388 96.0371 166.093C98.0257 167.911 100.725 169.31 104.134 170.29L109.504 171.824C111.038 172.25 112.465 172.747 113.786 173.315C115.107 173.884 116.173 174.622 116.982 175.531C117.792 176.44 118.196 177.62 118.196 179.068L118.191 179.364C118.136 180.832 117.669 182.126 116.79 183.244C115.853 184.423 114.582 185.347 112.977 186.015L112.673 186.133C111.144 186.707 109.434 186.994 107.543 186.994C106.027 186.994 104.597 186.799 103.255 186.407L102.686 186.228C101.194 185.702 99.9577 184.906 98.9775 183.841C98.0118 182.761 97.4584 181.398 97.3164 179.75H91.8613C92.0318 182.136 92.7632 184.231 94.0557 186.035C95.3625 187.839 97.1531 189.245 99.4258 190.254C101.713 191.262 104.418 191.767 107.543 191.767C110.895 191.767 113.743 191.206 116.087 190.084C118.445 188.962 120.235 187.449 121.457 185.546C122.616 183.761 123.23 181.777 123.303 179.593L123.311 179.153C123.311 177.108 122.891 175.382 122.053 173.976C121.215 172.57 120.15 171.419 118.857 170.524C117.579 169.615 116.236 168.898 114.83 168.372C113.786 167.978 112.814 167.648 111.914 167.382L111.037 167.137L106.605 165.943C105.796 165.73 104.908 165.453 103.942 165.112C103.097 164.802 102.285 164.42 101.505 163.968L101.173 163.77C100.292 163.216 99.5672 162.527 98.999 161.703C98.5143 160.97 98.2422 160.111 98.1816 159.128L98.168 158.699C98.168 157.307 98.5659 156.063 99.3613 154.97C100.171 153.876 101.293 153.017 102.728 152.392C104.176 151.767 105.867 151.454 107.799 151.454C110.441 151.454 112.671 152.051 114.489 153.244C116.307 154.437 117.344 156.114 117.6 158.272H122.714C122.647 156.208 122.044 154.35 120.903 152.698L120.668 152.371C119.469 150.746 117.872 149.446 115.874 148.471L115.47 148.28C113.419 147.335 111.093 146.833 108.493 146.773L107.97 146.767ZM151.031 146.767C148.247 146.767 145.725 147.278 143.467 148.301C141.223 149.309 139.433 150.73 138.098 152.562C136.777 154.381 136.116 156.511 136.116 158.954C136.116 161.894 137.111 164.275 139.1 166.093C141.088 167.911 143.787 169.31 147.196 170.29L152.565 171.824C154.099 172.25 155.527 172.747 156.848 173.315C158.169 173.884 159.234 174.622 160.044 175.531C160.854 176.44 161.259 177.62 161.259 179.068L161.253 179.364C161.198 180.832 160.731 182.126 159.853 183.244L159.673 183.462C158.755 184.537 157.543 185.389 156.038 186.015L155.734 186.133C154.206 186.707 152.495 186.994 150.604 186.994C149.088 186.994 147.659 186.799 146.317 186.407L145.747 186.228C144.349 185.735 143.175 185.004 142.227 184.037L142.04 183.841C141.074 182.761 140.52 181.398 140.378 179.75H134.923C135.093 182.136 135.826 184.231 137.118 186.035C138.425 187.839 140.215 189.245 142.487 190.254C144.774 191.262 147.48 191.767 150.604 191.767C153.957 191.767 156.806 191.206 159.149 190.084C161.507 188.962 163.297 187.449 164.519 185.546C165.677 183.761 166.293 181.777 166.365 179.593L166.372 179.153C166.372 177.108 165.953 175.382 165.115 173.976C164.277 172.569 163.211 171.419 161.919 170.524C160.641 169.615 159.298 168.898 157.892 168.372C156.848 167.978 155.876 167.648 154.976 167.382L154.1 167.137L149.667 165.943C148.857 165.73 147.97 165.453 147.004 165.112C146.159 164.802 145.346 164.42 144.566 163.968L144.234 163.77C143.354 163.216 142.629 162.527 142.061 161.703C141.576 160.97 141.304 160.111 141.243 159.128L141.229 158.699C141.229 157.307 141.627 156.063 142.423 154.97C143.233 153.876 144.355 153.017 145.79 152.392C147.239 151.767 148.929 151.454 150.86 151.454C153.502 151.454 155.733 152.051 157.551 153.244C159.255 154.363 160.273 155.906 160.604 157.874L160.662 158.272H165.775C165.709 156.208 165.105 154.35 163.965 152.698L163.729 152.371C162.531 150.746 160.933 149.446 158.936 148.471L158.531 148.28C156.48 147.335 154.155 146.833 151.555 146.773L151.031 146.767ZM62.8408 146.767C59.1194 146.767 55.8098 147.676 52.9121 149.494L52.376 149.844C49.7316 151.638 47.6304 154.107 46.0723 157.25C44.4104 160.602 43.5791 164.579 43.5791 169.182C43.5791 173.784 44.4105 177.761 46.0723 181.113C47.7342 184.466 50.0144 187.051 52.9121 188.869C55.6286 190.574 58.707 191.479 62.1475 191.586L62.8408 191.597C65.0425 191.597 67.1092 191.277 69.041 190.638C70.8654 190.038 72.5215 189.183 74.0088 188.072L74.3037 187.847C75.7686 186.688 77.009 185.298 78.0244 183.678L78.2246 183.351C79.2757 181.589 79.9998 179.593 80.3975 177.363H75.1133C74.8008 178.869 74.2539 180.204 73.4727 181.369C72.7056 182.52 71.7681 183.493 70.6602 184.288C69.5664 185.069 68.3518 185.659 67.0166 186.057C65.6815 186.454 64.2896 186.653 62.8408 186.653C60.1988 186.653 57.805 185.986 55.6602 184.65C53.6628 183.399 52.0464 181.591 50.8105 179.229L50.5684 178.749C49.3965 176.312 48.7735 173.357 48.7002 169.884L48.6934 169.182C48.6934 165.403 49.3184 162.215 50.5684 159.615C51.8325 157.016 53.5296 155.048 55.6602 153.713C57.805 152.378 60.1988 151.71 62.8408 151.71C64.2895 151.71 65.6815 151.909 67.0166 152.307C68.3518 152.704 69.5665 153.301 70.6602 154.097C71.768 154.878 72.7056 155.844 73.4727 156.994C74.2539 158.145 74.8008 159.48 75.1133 161H80.3975C79.9997 158.756 79.2757 156.76 78.2246 155.013C77.1735 153.251 75.8662 151.76 74.3037 150.538C72.7413 149.302 70.9869 148.365 69.041 147.726C67.1093 147.086 65.0424 146.767 62.8408 146.767ZM121.727 2.3125L208.727 94.3125L210.322 96H120V0.487305L121.727 2.3125ZM122 94H205.678L122 5.5127V94Z" fill="#FF01B3"/>
</svg>
