<svg width="211" height="283" viewBox="0 0 211 283" fill="none" xmlns="http://www.w3.org/2000/svg">
<path d="M119 97H210V283H0V3.5127L0.987305 3.5L117.987 2L119 1.9873V97ZM2 5.4873V281H208V99H117V4.0127L2 5.4873ZM78.625 153.051H64.9033V192H57.6191V153.051H43.8975V146.363H78.625V153.051ZM104.558 163.893L115.421 146.363H124.01L109.658 169.182L124.01 192H115.427L104.558 174.79L93.6885 192H85.0811L99.7881 169.182L85.0811 146.363H93.6934L104.558 163.893ZM165.217 153.051H151.495V192H144.212V153.051H130.49V146.363H165.217V153.051ZM44.8975 152.051H58.6191V191H63.9033V152.051H77.625V147.363H44.8975V152.051ZM100.978 169.182L86.915 191H93.1367L104.387 173.188H104.728L115.978 191H122.199L108.478 169.182L122.199 147.363H115.978L104.728 165.517H104.387L93.1367 147.363H86.915L100.978 169.182ZM131.49 152.051H145.212V191H150.495V152.051H164.217V147.363H131.49V152.051ZM121.727 2.3125L208.727 94.3125L210.322 96H120V0.487305L121.727 2.3125ZM122 94H205.678L122 5.5127V94Z" fill="#15B100"/>
</svg>
