<svg width="368" height="383" viewBox="0 0 368 383" fill="none" xmlns="http://www.w3.org/2000/svg">
<path d="M333 111H34C22.9543 111 14 119.954 14 131V330C14 341.046 22.9543 350 34 350H333C344.046 350 353 341.046 353 330V131C353 119.954 344.046 111 333 111Z" fill="#A7A488"/>
<path d="M250.5 87V0L345 87H250.5Z" fill="#D9D9D9"/>
<path d="M345 341V92H245V0H88V341H345Z" fill="#D9D9D9"/>
<path d="M214.5 97V10L309 97H214.5Z" fill="white"/>
<path d="M309 351V102H209V10H52V351H309Z" fill="white"/>
<path d="M347.5 144H20.5C9.4543 144 0.5 152.954 0.5 164V363C0.5 374.046 9.45431 383 20.5 383H347.5C358.546 383 367.5 374.046 367.5 363V164C367.5 152.954 358.546 144 347.5 144Z" fill="#BDB991"/>
<path d="M289.41 341.731L249.877 338.494L272.589 304.165L289.41 341.731Z" fill="#4E4E4E"/>
<path d="M269.831 298.809L244.479 336.044L100.107 237.746L125.458 200.511L269.831 298.809Z" fill="#4E4E4E"/>
<path d="M121.837 198.046L96.4861 235.281L73.9337 219.926L99.2861 182.691L121.837 198.046Z" fill="#4E4E4E"/>
</svg>
