<svg width="211" height="283" viewBox="0 0 211 283" fill="none" xmlns="http://www.w3.org/2000/svg">
<path d="M119 97H210V283H0V3.5127L0.987305 3.5L117.987 2L119 1.9873V97ZM2 5.4873V281H208V99H117V4.0127L2 5.4873ZM97.4941 164.355L77.5703 173.954L97.4941 183.554V191.268L68.5977 176.55L68.0508 176.272V171.637L68.5977 171.359L97.4941 156.642V164.355ZM141.299 171.359L141.845 171.637V176.272L141.299 176.55L112.402 191.268V183.554L132.324 173.954L112.402 164.355V156.642L141.299 171.359ZM69.0508 172.25V175.659L96.4941 189.637V184.182L75.6133 174.121V173.787L96.4941 163.728V158.272L69.0508 172.25ZM113.402 163.728L134.282 173.786V174.122L113.402 184.182V189.637L140.845 175.659V172.25L113.402 158.272V163.728ZM121.727 2.3125L208.727 94.3125L210.322 96H120V0.487305L121.727 2.3125ZM122 94H205.678L122 5.5127V94Z" fill="#E1FF00"/>
</svg>
