<svg width="211" height="283" viewBox="0 0 211 283" fill="none" xmlns="http://www.w3.org/2000/svg">
<path d="M119 97H210V283H0V3.5127L0.987305 3.5L117.987 2L119 1.9873V97ZM2 5.4873V281H208V99H117V4.0127L2 5.4873ZM126 202L140.5 176.5L166 213H43L80 142L126 202ZM44.6484 212H164.082L140.587 178.369L126.124 203.805L80.1611 143.854L44.6484 212ZM135.5 133C141.851 133 147 138.149 147 144.5C147 150.851 141.851 156 135.5 156C129.149 156 124 150.851 124 144.5C124 138.149 129.149 133 135.5 133ZM135.5 134C129.701 134 125 138.701 125 144.5C125 150.299 129.701 155 135.5 155C141.299 155 146 150.299 146 144.5C146 138.701 141.299 134 135.5 134ZM121.727 2.3125L208.727 94.3125L210.322 96H120V0.487305L121.727 2.3125ZM122 94H205.678L122 5.5127V94Z" fill="#FF0000"/>
</svg>
