<svg width="211" height="283" viewBox="0 0 211 283" fill="none" xmlns="http://www.w3.org/2000/svg">
<path d="M119 97H210V283H0V3.5127L0.987305 3.5L117.987 2L119 1.9873V97ZM2 5.4873V281H208V99H117V4.0127L2 5.4873ZM123.896 145.767C126.826 145.767 129.47 146.293 131.808 147.369C134.13 148.425 136.004 149.889 137.395 151.772C138.812 153.673 139.561 155.838 139.639 158.24L139.672 159.272H132.638L132.533 158.391C132.312 156.525 131.437 155.111 129.866 154.08C128.243 153.015 126.214 152.454 123.725 152.454C121.899 152.454 120.349 152.75 119.05 153.311L119.049 153.31C117.752 153.875 116.781 154.633 116.091 155.565C115.427 156.481 115.094 157.515 115.094 158.699C115.094 159.697 115.328 160.497 115.755 161.146C116.24 161.846 116.858 162.436 117.62 162.917C118.441 163.42 119.301 163.837 120.2 164.169C120.909 164.419 121.572 164.633 122.187 164.811L122.786 164.977L122.792 164.978L127.217 166.169C128.393 166.478 129.691 166.901 131.106 167.436L131.662 167.654C132.947 168.185 134.178 168.868 135.353 169.702L135.614 169.889C136.911 170.84 137.986 172.035 138.838 173.464C139.789 175.059 140.236 176.972 140.236 179.153C140.236 181.695 139.566 184.014 138.223 186.085L138.224 186.086C136.887 188.169 134.943 189.795 132.444 190.984L132.445 190.985C129.934 192.188 126.929 192.767 123.469 192.767C120.239 192.767 117.389 192.246 114.947 191.169L114.945 191.168C112.682 190.163 110.838 188.773 109.444 186.985L109.169 186.618C107.76 184.652 106.973 182.377 106.79 179.821L106.713 178.75H114.159L114.238 179.664C114.364 181.128 114.848 182.278 115.649 183.174C116.506 184.101 117.593 184.806 118.936 185.28C120.328 185.753 121.836 185.994 123.469 185.994C125.377 185.994 127.058 185.685 128.525 185.088C129.995 184.475 131.118 183.648 131.934 182.622C132.723 181.615 133.122 180.445 133.122 179.068C133.122 177.816 132.778 176.889 132.161 176.196C131.465 175.414 130.527 174.755 129.316 174.234C128.041 173.686 126.656 173.202 125.161 172.787L119.785 171.251H119.783C116.271 170.241 113.422 168.78 111.289 166.83C109.073 164.804 107.98 162.147 107.98 158.954C107.981 156.319 108.697 153.979 110.153 151.975C111.6 149.99 113.532 148.462 115.921 147.389C118.323 146.301 120.988 145.767 123.896 145.767ZM95.2725 178.557C95.2725 181.461 94.7396 183.995 93.624 186.117C92.5129 188.231 90.9317 189.856 88.8896 190.963C86.8566 192.065 84.4916 192.597 81.8291 192.597C79.3208 192.597 77.0498 192.14 75.0371 191.203L75.0312 191.201C73.0155 190.247 71.4068 188.879 70.2344 187.097C69.0462 185.291 68.4717 183.168 68.4717 180.772V179.772H75.6709V180.772C75.6709 181.832 75.9293 182.712 76.416 183.451C76.9324 184.2 77.6405 184.797 78.5713 185.238C79.4978 185.677 80.5768 185.909 81.8291 185.909C83.2082 185.909 84.3148 185.62 85.1934 185.093C86.0672 184.568 86.7455 183.795 87.2236 182.729L87.2256 182.724C87.7192 181.638 87.9883 180.261 87.9883 178.557V146.363H95.2725V178.557ZM123.896 146.767C121.111 146.767 118.59 147.278 116.331 148.301C114.087 149.309 112.297 150.73 110.962 152.562C109.641 154.381 108.981 156.511 108.98 158.954L108.992 159.499C109.109 162.19 110.099 164.388 111.963 166.093C113.951 167.911 116.651 169.31 120.06 170.29L125.43 171.824C126.964 172.25 128.391 172.747 129.712 173.315C131.033 173.884 132.099 174.622 132.908 175.531C133.718 176.44 134.122 177.62 134.122 179.068L134.117 179.364C134.062 180.832 133.595 182.126 132.716 183.244C131.778 184.423 130.507 185.347 128.902 186.015L128.599 186.133C127.07 186.707 125.36 186.994 123.469 186.994C121.736 186.994 120.117 186.739 118.611 186.228C117.12 185.702 115.883 184.906 114.903 183.841C113.938 182.761 113.384 181.398 113.242 179.75H107.787C107.958 182.136 108.689 184.231 109.981 186.035C111.288 187.839 113.079 189.245 115.352 190.254C117.638 191.262 120.344 191.767 123.469 191.767C126.821 191.767 129.669 191.206 132.013 190.084C134.371 188.962 136.161 187.449 137.383 185.546C138.541 183.761 139.156 181.777 139.229 179.593L139.236 179.153C139.236 177.108 138.817 175.382 137.979 173.976C137.141 172.57 136.076 171.419 134.783 170.524C133.505 169.615 132.162 168.898 130.756 168.372C129.712 167.978 128.74 167.648 127.84 167.382L126.963 167.137L122.531 165.943C121.722 165.73 120.834 165.453 119.868 165.112C119.023 164.802 118.211 164.42 117.431 163.968L117.099 163.77C116.218 163.216 115.493 162.527 114.925 161.703C114.44 160.97 114.168 160.111 114.107 159.128L114.094 158.699C114.094 157.307 114.492 156.063 115.287 154.97C116.097 153.876 117.219 153.017 118.653 152.392C120.102 151.767 121.793 151.454 123.725 151.454C126.367 151.454 128.597 152.051 130.415 153.244C132.233 154.437 133.27 156.114 133.525 158.272H138.64C138.573 156.208 137.969 154.35 136.829 152.698L136.594 152.371C135.395 150.746 133.797 149.446 131.8 148.471L131.396 148.28C129.345 147.335 127.019 146.833 124.419 146.773L123.896 146.767ZM88.9883 178.557C88.9883 180.361 88.7048 181.888 88.1367 183.138C87.5827 184.373 86.7724 185.311 85.707 185.95C84.6417 186.589 83.3489 186.909 81.8291 186.909L81.3203 186.897C80.3149 186.85 79.3933 186.658 78.5557 186.322L78.1436 186.142C77.0642 185.63 76.2119 184.921 75.5869 184.012C74.9761 183.088 74.6709 182.008 74.6709 180.772H69.4717C69.4717 183.003 70.004 184.928 71.0693 186.547C72.1347 188.166 73.5982 189.416 75.459 190.297C77.2033 191.109 79.1786 191.541 81.3848 191.592L81.8291 191.597C84.1996 191.597 86.2769 191.153 88.0605 190.267L88.4131 190.084C90.1575 189.139 91.5341 187.781 92.542 186.012L92.7383 185.652C93.761 183.706 94.2725 181.341 94.2725 178.557V147.363H88.9883V178.557ZM121.727 2.3125L208.727 94.3125L210.322 96H120V0.487305L121.727 2.3125ZM122 94H205.678L122 5.5127V94Z" fill="#00B2FF"/>
</svg>
