<svg width="211" height="283" viewBox="0 0 211 283" fill="none" xmlns="http://www.w3.org/2000/svg">
<path d="M119 97H210V283H0V3.5127L0.987305 3.5L117.987 2L119 1.9873V97ZM2 5.4873V281H208V99H117V4.0127L2 5.4873ZM102.892 182.671C104.212 182.671 105.367 183.155 106.305 184.093C107.242 185.03 107.728 186.186 107.728 187.506C107.728 188.382 107.502 189.202 107.049 189.944L107.048 189.943C106.623 190.663 106.047 191.246 105.33 191.684L105.324 191.688C104.589 192.128 103.769 192.341 102.892 192.341C101.572 192.341 100.416 191.857 99.4785 190.919C98.541 189.981 98.0567 188.826 98.0566 187.506C98.0566 186.186 98.5411 185.03 99.4785 184.093C100.416 183.155 101.572 182.671 102.892 182.671ZM102.892 183.671C101.841 183.671 100.939 184.047 100.187 184.8L100.05 184.942C99.3879 185.666 99.0566 186.52 99.0566 187.506L99.0615 187.701C99.1057 188.669 99.4808 189.506 100.187 190.212C100.939 190.964 101.841 191.341 102.892 191.341C103.602 191.341 104.241 191.17 104.81 190.829C105.392 190.474 105.853 190.005 106.194 189.423C106.505 188.913 106.68 188.36 106.719 187.764L106.728 187.506C106.728 186.52 106.396 185.666 105.734 184.942L105.598 184.8C104.892 184.094 104.055 183.719 103.087 183.675L102.892 183.671ZM104.085 145.767C106.719 145.767 109.061 146.291 111.079 147.378H111.078C113.091 148.454 114.663 149.942 115.77 151.841C116.892 153.743 117.443 155.896 117.443 158.272C117.443 159.938 117.186 161.476 116.653 162.87L116.652 162.869C116.14 164.247 115.395 165.483 114.417 166.569L114.416 166.568C113.466 167.64 112.326 168.579 111.006 169.39L111.007 169.391C109.818 170.133 108.9 170.896 108.228 171.67L108.223 171.676C107.575 172.409 107.096 173.291 106.793 174.339C106.485 175.405 106.306 176.78 106.278 178.487V179.728H99.165V178.461C99.194 175.698 99.4823 173.422 100.069 171.676C100.648 169.954 101.488 168.511 102.611 167.388C103.671 166.328 104.931 165.364 106.382 164.49C107.143 164.026 107.823 163.479 108.427 162.851C109.01 162.23 109.471 161.516 109.81 160.701L109.814 160.689C110.152 159.905 110.329 159.019 110.329 158.017C110.329 156.787 110.043 155.773 109.507 154.934C108.951 154.063 108.212 153.396 107.276 152.922C106.335 152.445 105.277 152.199 104.085 152.199C103.063 152.199 102.08 152.41 101.127 152.836C100.225 153.24 99.4611 153.877 98.833 154.775C98.2415 155.622 97.8582 156.788 97.7529 158.341L97.6904 159.272H90.3379L90.3877 158.226C90.5083 155.662 91.175 153.414 92.4268 151.521L92.4307 151.517C93.6808 149.649 95.3298 148.216 97.3633 147.23L97.3662 147.229C99.4034 146.249 101.649 145.767 104.085 145.767ZM104.085 146.767C101.784 146.767 99.6889 147.222 97.7998 148.131C95.9249 149.04 94.4123 150.354 93.2617 152.072L93.0547 152.398C92.0491 154.051 91.4933 156.009 91.3867 158.272H96.7559L96.7803 157.962C96.9226 156.428 97.3336 155.175 98.0127 154.203C98.7371 153.166 99.6392 152.406 100.719 151.923C101.798 151.44 102.92 151.199 104.085 151.199L104.58 151.212C105.722 151.272 106.771 151.546 107.729 152.03C108.822 152.584 109.696 153.372 110.35 154.395C111.003 155.417 111.329 156.625 111.329 158.017C111.329 159.139 111.131 160.162 110.733 161.085L110.582 161.427C110.215 162.211 109.74 162.914 109.156 163.535C108.489 164.231 107.736 164.835 106.897 165.347L106.385 165.664C105.21 166.414 104.188 167.225 103.318 168.095L103.135 168.285C102.229 169.253 101.523 170.489 101.017 171.994C100.477 173.599 100.193 175.759 100.165 178.472V178.728H105.278V178.472C105.303 176.93 105.448 175.612 105.712 174.517L105.832 174.062C106.13 173.03 106.587 172.123 107.2 171.342L107.473 171.015C108.225 170.148 109.228 169.324 110.478 168.543C111.727 167.776 112.792 166.895 113.673 165.9C114.568 164.906 115.25 163.777 115.719 162.513C116.141 161.407 116.379 160.186 116.432 158.852L116.443 158.272C116.443 156.195 115.994 154.33 115.095 152.677L114.909 152.35C113.964 150.725 112.644 149.425 110.949 148.449L110.605 148.259C108.759 147.264 106.585 146.767 104.085 146.767ZM121.727 2.3125L208.727 94.3125L210.322 96H120V0.487305L121.727 2.3125ZM122 94H205.678L122 5.5127V94Z" fill="#3CFF00"/>
</svg>
